<svg viewBox="0 0 100 100" xmlns="http://www.w3.org/2000/svg" id="Card-Secure-3--Streamline-Ux">
  <desc>
    Card Secure 3 Streamline Illustration: https://streamlinehq.com
  </desc>
  <path d="M10 50a40 40 0 1 0 80 0 40 40 0 1 0 -80 0Z" fill="#daedf7" stroke="#daedf7" stroke-width="1"></path>
  <path d="m19.595 26.994 56.103 0 0 37.636 -56.103 0Z" fill="#009fd9" stroke-width="1"></path>
  <path d="M38.414 54.366a1.711 1.711 0 0 1 -1.714 -1.711 1.711 1.711 0 0 0 -1.711 -1.71h-1.708a3.422 3.422 0 0 1 0 -6.843h1.711a1.711 1.711 0 0 0 1.708 -1.711 1.711 1.711 0 0 1 1.711 -1.711h1.71a1.711 1.711 0 0 0 1.711 -1.711v-5.132a1.71 1.71 0 0 0 -1.711 -1.71 5.132 5.132 0 0 1 -5.132 -5.133H22.447a2.851 2.851 0 0 0 -2.847 2.851V44.1a3.421 3.421 0 0 0 3.421 3.421 1.711 1.711 0 0 1 1.711 1.711v3.421a1.711 1.711 0 0 0 1.711 1.711 1.711 1.711 0 0 1 1.711 1.711v1.711a3.421 3.421 0 0 0 3.421 3.421 3.422 3.422 0 0 1 3.422 3.421h10.26v-3.419a6.844 6.844 0 0 0 -6.843 -6.843Z" fill="#4acfff" stroke-width="1"></path>
  <path d="M72.848 26.994H62.012A1.711 1.711 0 0 0 60.3 28.7a4.277 4.277 0 0 1 -4.277 4.277 2.568 2.568 0 0 0 -2.567 2.567 6.844 6.844 0 0 0 6.844 6.847 1.711 1.711 0 0 1 1.71 1.711v0.855a2.567 2.567 0 0 0 2.567 2.566 2.565 2.565 0 0 1 2.566 2.566 4.277 4.277 0 0 0 4.277 4.277h4.28V29.845a2.852 2.852 0 0 0 -2.852 -2.851Z" fill="#4acfff" stroke-width="1"></path>
  <path d="M72.848 26.994h-50.4a2.851 2.851 0 0 0 -2.848 2.851v4.277a2.851 2.851 0 0 1 2.852 -2.851h50.4a2.852 2.852 0 0 1 2.848 2.851v-4.277a2.852 2.852 0 0 0 -2.852 -2.851Z" fill="#00b8f0" stroke-width="1"></path>
  <path d="M58.591 64.63a5.132 5.132 0 0 0 -5.133 -5.13 1.711 1.711 0 0 1 -1.709 -1.711 5.132 5.132 0 0 1 5.131 -5.133h1.454a8.814 8.814 0 0 1 7.17 3.69 8.8 8.8 0 0 1 1.641 5.122v3.162Z" fill="#4acfff" stroke-width="1"></path>
  <path d="m26.438 42.391 10.265 0 0 6.843 -10.265 0Z" fill="#daedf7" stroke-width="1"></path>
  <path d="M27.864 49.234h0.547l6.843 -6.843h-7.39a1.425 1.425 0 0 0 -1.426 1.426v3.991a1.426 1.426 0 0 0 1.426 1.426Z" fill="#daedf7" stroke-width="1"></path>
  <path d="m26.438 42.391 10.265 0 0 6.843 -10.265 0Z" fill="none" stroke="#45413c" stroke-linecap="round" stroke-linejoin="round" stroke-width="1"></path>
  <path d="m26.438 32.127 28.731 0 0 6.843 -28.731 0Z" fill="#daedf7" stroke-width="1"></path>
  <path d="m28.149 56.077 0 3.422" fill="none" stroke="#45413c" stroke-linecap="round" stroke-linejoin="round" stroke-width="1"></path>
  <path d="m31.57 56.077 0 3.422" fill="none" stroke="#45413c" stroke-linecap="round" stroke-linejoin="round" stroke-width="1"></path>
  <path d="m34.992 56.077 0 3.422" fill="none" stroke="#45413c" stroke-linecap="round" stroke-linejoin="round" stroke-width="1"></path>
  <path d="m38.414 56.077 0 3.422" fill="none" stroke="#45413c" stroke-linecap="round" stroke-linejoin="round" stroke-width="1"></path>
  <path d="m45.257 56.077 0 3.422" fill="none" stroke="#45413c" stroke-linecap="round" stroke-linejoin="round" stroke-width="1"></path>
  <path d="m48.677 56.077 0 3.422" fill="none" stroke="#45413c" stroke-linecap="round" stroke-linejoin="round" stroke-width="1"></path>
  <path d="m51.749 56.077 0 3.422" fill="none" stroke="#45413c" stroke-linecap="round" stroke-linejoin="round" stroke-width="1"></path>
  <path d="m58.591 56.077 0 3.422" fill="none" stroke="#45413c" stroke-linecap="round" stroke-linejoin="round" stroke-width="1"></path>
  <path d="m62.012 56.077 0 3.422" fill="none" stroke="#45413c" stroke-linecap="round" stroke-linejoin="round" stroke-width="1"></path>
  <path d="m65.434 56.077 0 3.422" fill="none" stroke="#45413c" stroke-linecap="round" stroke-linejoin="round" stroke-width="1"></path>
  <path d="m68.856 56.077 0 3.422" fill="none" stroke="#45413c" stroke-linecap="round" stroke-linejoin="round" stroke-width="1"></path>
  <path d="m26.438 32.127 28.731 0 0 6.843 -28.731 0Z" fill="none" stroke="#45413c" stroke-linecap="round" stroke-linejoin="round" stroke-width="1"></path>
  <path d="M62.868 45.812a4.277 4.277 0 1 0 8.554 0 4.277 4.277 0 1 0 -8.554 0Z" fill="#ffe500" stroke-width="1"></path>
  <path d="M57.735 45.812a4.277 4.277 0 1 0 8.554 0 4.277 4.277 0 1 0 -8.554 0Z" fill="#ff6242" stroke-width="1"></path>
  <path d="m60.302 45.812 8.554 0" fill="none" stroke="#f8f8f8" stroke-linecap="round" stroke-linejoin="round" stroke-width="1"></path>
  <path d="M75.7 34.122a2.852 2.852 0 0 0 -2.851 -2.851h-13.4A4.26 4.26 0 0 0 60.3 28.7a1.711 1.711 0 0 1 1.71 -1.71h10.838a2.852 2.852 0 0 1 2.852 2.855v4.277Z" fill="#b8ecff" stroke-width="1"></path>
  <path d="M37.286 31.271H22.447a2.851 2.851 0 0 0 -2.847 2.851v-4.277a2.851 2.851 0 0 1 2.852 -2.851h12.54a5.125 5.125 0 0 0 2.294 4.277Z" fill="#b8ecff" stroke-width="1"></path>
  <path d="m19.595 26.994 56.103 0 0 37.636 -56.103 0Z" fill="none" stroke="#45413c" stroke-linecap="round" stroke-linejoin="round" stroke-width="1"></path>
  <path d="M63.313 79.868a11.55 1.414 0 1 0 23.1 0 11.55 1.414 0 1 0 -23.1 0Z" fill="#45413c" opacity=".15" stroke-width="1"></path>
  <path d="M20.613 65.868a26.25 1.414 0 1 0 52.5 0 26.25 1.414 0 1 0 -52.5 0Z" fill="#45413c" opacity=".15" stroke-width="1"></path>
  <path d="M61.138 49.765v9.982a16.092 16.092 0 0 0 10.744 14.99l1.465 0.541a4.4 4.4 0 0 0 3.032 0l1.465 -0.541a16.092 16.092 0 0 0 10.743 -14.99v-9.982a2 2 0 0 0 -1.221 -1.837 33.2 33.2 0 0 0 -25.006 0 2 2 0 0 0 -1.222 1.837Z" fill="#6dd627" stroke-width="1"></path>
  <path d="M84.6 46.909a33.16 33.16 0 0 0 -9.732 -1.425 31.657 31.657 0 0 0 -12.5 2.444 2 2 0 0 0 -1.222 1.837v9.982a15.539 15.539 0 0 0 2.376 8.243Z" fill="#9ceb60" stroke-width="1"></path>
  <path d="M61.138 49.765v9.982a16.092 16.092 0 0 0 10.744 14.99l1.465 0.541a4.4 4.4 0 0 0 3.032 0l1.465 -0.541a16.092 16.092 0 0 0 10.743 -14.99v-9.982a2 2 0 0 0 -1.221 -1.837 33.2 33.2 0 0 0 -25.006 0 2 2 0 0 0 -1.222 1.837Z" fill="none" stroke="#45413c" stroke-linecap="round" stroke-linejoin="round" stroke-width="1"></path>
  <path d="M80.821 57.275h-4.176V53.1a1.782 1.782 0 1 0 -3.564 0v4.176h-4.176a1.782 1.782 0 0 0 0 3.564h4.176v4.176a1.782 1.782 0 1 0 3.564 0v-4.177h4.176a1.782 1.782 0 0 0 0 -3.564Z" fill="#ffffff" stroke="#45413c" stroke-linecap="round" stroke-linejoin="round" stroke-width="1"></path>
</svg>